<svg version="1.2" xmlns="http://www.w3.org/2000/svg" viewBox="0 0 204 169" width="204" height="169">
	<title>Logo-3-svg</title>
	<defs>
		<linearGradient id="g1" x1="70.4" y1="87.9" x2="197" y2="87.9" gradientUnits="userSpaceOnUse">
			<stop offset="0" stop-color="#4229ea"/>
			<stop offset="1" stop-color="#412bea"/>
		</linearGradient>
		<linearGradient id="g2" x1="11" y1="129.9" x2="82.8" y2="129.9" gradientUnits="userSpaceOnUse">
			<stop offset="0" stop-color="#4229ea"/>
			<stop offset="1" stop-color="#412bea"/>
		</linearGradient>
	</defs>
	<style>
		.s0 { fill: url(#g1) } 
		.s1 { fill: url(#g2) } 
	</style>
	<path id="Layer" class="s0" d="m181.9 159.7c-3.7 2.5-7.9 4.3-12.3 5.1c-4.4 0.9-8.9 0.9-13.3 0.1c-4.4-0.9-8.6-2.6-12.3-5.1c-3.8-2.5-7-5.7-9.5-9.4l-58.4-87c-5.2-7.5-7.3-16.9-5.6-25.9c1.7-9 7-17 14.6-22.1c7.6-5.1 17-6.9 26-5c9 1.8 16.8 7.2 21.8 15l58.3 87c2.5 3.7 4.2 7.9 5.1 12.3c0.9 4.4 0.9 8.9 0 13.3c-0.8 4.4-2.5 8.5-5 12.3c-2.5 3.7-5.7 6.9-9.4 9.4z" />
	<path id="Layer" class="s1" d="m82.8 129.9c0 14.5-8.8 27.6-22.2 33.1c-13.4 5.6-28.9 2.5-39.1-7.7c-10.3-10.3-13.4-25.7-7.8-39.1c5.6-13.5 18.6-22.2 33.2-22.2c4.7 0 9.3 0.9 13.7 2.7c4.3 1.8 8.3 4.5 11.6 7.8c3.4 3.3 6 7.3 7.8 11.7c1.8 4.3 2.8 9 2.8 13.7z" />
</svg>