<svg version="1.2" xmlns="http://www.w3.org/2000/svg" viewBox="0 0 1300 225" width="1300" height="225">
	<title>logo-svg</title>
	<defs>
		<linearGradient id="g1" x1="76.8" y1="122.3" x2="223.7" y2="122.3" gradientUnits="userSpaceOnUse">
			<stop offset="0" stop-color="#4229ea"/>
			<stop offset="1" stop-color="#412bea"/>
		</linearGradient>
		<linearGradient id="g2" x1="8" y1="171.1" x2="91.2" y2="171.1" gradientUnits="userSpaceOnUse">
			<stop offset="0" stop-color="#4229ea"/>
			<stop offset="1" stop-color="#412bea"/>
		</linearGradient>
	</defs>
	<style>
		.s0 { fill: #1f2647 } 
		.s1 { fill: url(#g1) } 
		.s2 { fill: url(#g2) } 
	</style>
	<g id="Folder 1">
		<path id="Layer" fill-rule="evenodd" class="s0" d="m376.1 165.9h-69.9l-15 40.9h-37.3l64.9-173.4h44.7l64.8 173.4h-37.6zm-12.3-33.7l-22.8-62.8l-22.8 62.8z" />
		<path id="Layer" fill-rule="evenodd" class="s0" d="m573.8 16.3v190.5h-35.4v-18.3c-2.4 3.4-5.2 6.4-8.4 9.1c-3.1 2.7-6.6 5-10.3 6.9c-3.8 1.8-7.7 3.2-11.7 4.1c-4.1 0.9-8.2 1.3-12.4 1.2c-35.3 0-62.1-29.2-62.1-71c0-41.8 27-71 61.9-71c4.2-0.1 8.4 0.4 12.5 1.3c4.1 1 8 2.4 11.8 4.3c3.7 1.9 7.2 4.3 10.3 7.1c3.2 2.7 6 5.9 8.4 9.3v-73.5zm-35.4 122.5c0-22.3-15.2-37.4-34.9-37.4c-19.6 0-34.3 15.2-34.3 37.4c0 22.2 14.8 37.3 34.3 37.3c19.6 0 34.9-14.9 34.9-37.3z" />
		<path id="Layer" class="s0" d="m592.3 162h35.8c2.8 10.8 10.9 18.2 32.9 18.2c15.6 0 23-3.7 23-11.1c0-9.1-10.6-9.9-31.1-14.9c-38.6-9.1-54.5-17.8-54.5-41.3c0-28.7 23.8-45.2 59.7-45.2c37.8 0 56.3 18.2 61.1 43.5h-35.9c-2.7-8.7-10.1-13.9-26.5-13.9c-14.1 0-22.8 4-22.8 11.4c0 6.5 6.1 7.7 26 12.2c38.9 8.9 60.7 16.3 60.7 43.5c0 30.4-27 45.3-60.7 45.3c-36.5 0-63-17.8-67.7-47.7z" />
		<path id="Layer" fill-rule="evenodd" class="s0" d="m875.8 147.9h-104.4c2.3 21.8 17.1 32.6 35.4 32.6c13.6 0 25.5-6 30.2-17h36.5c-10.1 32.2-37.4 46.2-66.5 46.2c-42.6 0-71.8-30.1-71.8-70.7c0-40.6 29.5-71.2 71-71.2c45.2-0.1 73.1 35.3 69.6 80.1zm-102.6-26h65c-3.9-14.8-15.2-25-32.1-25c-17 0-28.3 10.4-32.9 25z" />
		<path id="Layer" class="s0" d="m980.7 68.2v36.5q-1-0.1-2.1-0.2q-1.1-0.1-2.2-0.2q-1.1 0-2.1-0.1q-1.1 0-2.2 0c-22.5 0-41.8 9.9-41.8 42.1v60.6h-35.4v-136.2h35.4v23.8c8.4-17.9 23.2-26.8 42.5-26.8q1 0 2 0.1q1 0 2 0.1q1 0 2 0.1q1 0.1 1.9 0.2z" />
		<path id="Layer" fill-rule="evenodd" class="s0" d="m1129.9 147.9h-104.4c2.2 21.8 17.1 32.6 35.4 32.6c13.6 0 25.5-6 30.2-17h36.5c-10.2 32.2-37.4 46.2-66.6 46.2c-42.6 0-71.7-30.1-71.7-70.7c0-40.6 29.4-71.2 71-71.2c45.1-0.1 73.1 35.3 69.6 80.1zm-102.8-26h65.1c-4-14.9-15.2-25-32.2-25c-16.9 0-28.3 10.4-32.9 25z" />
		<path id="Layer" fill-rule="evenodd" class="s0" d="m1286 70.7l-0.2 136.1h-35.4v-18.3c-2.4 3.4-5.2 6.4-8.3 9.1c-3.2 2.7-6.6 5-10.3 6.9c-3.7 1.8-7.6 3.2-11.7 4.1c-4 0.9-8.1 1.3-12.3 1.2c-35.6 0-62-29.2-62-71c0-41.8 26.9-71 61.8-71c4.2-0.1 8.4 0.4 12.5 1.3c4.1 0.9 8 2.4 11.8 4.3c3.7 1.9 7.2 4.3 10.4 7.1c3.1 2.7 5.9 5.9 8.3 9.3v-19zm-35.3 68.1c0-22.3-15.2-37.4-34.9-37.4c-19.7 0-34.4 15.2-34.4 37.4c0 22.1 14.8 37.3 34.4 37.3c19.5 0 34.9-14.9 34.9-37.3z" />
		<path id="Layer" class="s1" d="m206.1 205.7c-4.4 2.9-9.2 4.9-14.3 5.9c-5 1-10.3 1-15.4 0c-5-1-9.9-3-14.2-5.9c-4.3-2.9-8-6.6-10.9-10.9l-67.7-100.8c-5.8-8.7-7.9-19.4-5.9-29.7c2-10.3 8.1-19.3 16.8-25.2c8.7-5.8 19.3-8 29.6-6c10.3 2.1 19.4 8.1 25.2 16.8l67.7 100.8c2.9 4.3 5 9.2 6 14.3c1 5.1 1 10.4 0 15.5c-1 5.1-3.1 9.9-6 14.3c-2.9 4.3-6.6 8-10.9 10.9z" />
		<path id="Layer" class="s2" d="m49.6 212.7c-23 0-41.6-18.6-41.6-41.6c0-23.1 18.6-41.6 41.6-41.6c23 0 41.6 18.5 41.6 41.6c0 23-18.6 41.6-41.6 41.6z" />
	</g>
</svg>